# xmcd CD database file
#
# Track frame offsets:
#	150
#	30573
#	51167
#	81675
#	102792
#	125998
#	152869
#	174177
#	204196
#
# Disc length: 3017 seconds
#
# Revision: 0
# Processed by: cddbd v1.5.2PL0 Copyright (c) Steve Scherf et al.
# Submitted via: CDex 1.70beta2
#
DISCID=740bc709
DTITLE=the fascinations - latona
DYEAR=2009
DGENRE=Jazz
TTITLE0=latona
TTITLE1=the st. vitus dance
TTITLE2=y funk
TTITLE3=mexican hip dance
TTITLE4=mellow dancer
TTITLE5=beyond the moon
TTITLE6=speedball
TTITLE7=the dirt
TTITLE8='round about midnight feat. kurofune lady
EXTD=YEAR: 2009
EXTT0=
EXTT1=
EXTT2=
EXTT3=
EXTT4=
EXTT5=
EXTT6=
EXTT7=
EXTT8=
PLAYORDER=
